<svg id="filled_outline" height="512" viewBox="0 0 512 512" width="512" xmlns="http://www.w3.org/2000/svg" data-name="filled outline"><path d="m256 488a32 32 0 0 1 -32-32v-24h64v24a32 32 0 0 1 -32 32z" fill="#eac654"/><path d="m224 432v24h48v24a32.309 32.309 0 0 1 -.238 3.845 31.981 31.981 0 0 0 16.238-27.845v-24z" fill="#e0b329"/><path d="m476.494 183.355c-9.18-6.869-20.494-15.355-20.494-15.355l20.792-15.475a14.824 14.824 0 0 0 3.483-20.113l-.2-.305a15.239 15.239 0 0 0 -20.572-4.649c-6.192 3.738-13.519 8.144-19.052 11.469a15.556 15.556 0 0 1 -16.645-.392 15.57 15.57 0 0 1 -2.373-23.964l18-18a12.118 12.118 0 0 0 -15.84-18.263l-13.5 10.123h-122.093l-32 31.569-32-31.571h-122.094l-13.5-10.123a12.118 12.118 0 0 0 -15.837 18.263l18 18a15.57 15.57 0 0 1 -2.369 23.966 15.556 15.556 0 0 1 -16.645.392c-5.535-3.327-12.862-7.727-19.055-11.469a15.24 15.24 0 0 0 -20.573 4.649l-.2.305a14.824 14.824 0 0 0 3.483 20.113l20.79 15.475s-11.314 8.486-20.494 15.355a15.212 15.212 0 0 0 -3.5 20.657l.2.3a14.772 14.772 0 0 0 19.909 4.463l27.885-16.775-4.317 17.268a15.186 15.186 0 0 0 11.049 18.415l1.818.454a15.182 15.182 0 0 0 18.571-11.756c1.3-6.532 2.738-13.719 3.7-18.582a12.058 12.058 0 0 1 6.473-8.447l.185-.093a11.821 11.821 0 0 1 15.873 5.313l10.648 21.428h224l10.645-21.428a11.821 11.821 0 0 1 15.873-5.313l.185.093a12.058 12.058 0 0 1 6.473 8.447c.966 4.863 2.4 12.05 3.7 18.582a15.182 15.182 0 0 0 18.571 11.756l1.818-.454a15.186 15.186 0 0 0 11.049-18.415l-4.314-17.268 27.882 16.777a14.772 14.772 0 0 0 19.909-4.463l.2-.3a15.212 15.212 0 0 0 -3.497-20.659z" fill="#16696d"/><path d="m352 152a79.856 79.856 0 0 1 31.453-63.571h-95.453l-32 31.571-32-31.571h-95.452a79.974 79.974 0 0 1 10.479 117.561l4.973 10.01h224l4.973-10.01a79.7 79.7 0 0 1 -20.973-53.99z" fill="#074349"/><path d="m368 376v8h-224v-8l8.637-112.283a103.669 103.669 0 0 1 103.363-95.717 103.669 103.669 0 0 1 103.363 95.717z" fill="#eac654"/><path d="m359.363 263.717a103.674 103.674 0 0 0 -95.563-95.425 103.573 103.573 0 0 1 47.567 79.425 112.244 112.244 0 0 1 -111.959 120.283h-54.793l-.615 8v8h224v-8z" fill="#e0b329"/><path d="m143.561 376h224.878a31.561 31.561 0 0 1 31.561 31.561v16.858a15.581 15.581 0 0 1 -15.581 15.581h-256.838a15.581 15.581 0 0 1 -15.581-15.581v-16.858a31.561 31.561 0 0 1 31.561-31.561z" fill="#fcdd69"/><path d="m384.419 424h-256.838a15.581 15.581 0 0 1 -15.581-15.581v16a15.581 15.581 0 0 0 15.581 15.581h256.838a15.581 15.581 0 0 0 15.581-15.581v-16a15.581 15.581 0 0 1 -15.581 15.581z" fill="#eac654"/><path d="m332.277 272.806-40.546 10.724-19.664-11.437 19.709-11.377 40.511 10.858 4.143-15.454-25.057-6.716 14.382-8.302-7.998-13.857-14.382 8.302 6.155-22.965-15.455-4.143-10.298 38.42-19.779 11.417-.001-22.959 29.66-29.66-11.314-11.314-18.346 18.346-.001-20.689h-16l.001 20.683-18.34-18.34-11.314 11.314 29.654 29.654.001 22.781-19.691-11.453-10.171-38.453-15.469 4.092 6.08 22.984-14.222-8.272-8.045 13.831 14.223 8.272-25.079 6.634 4.092 15.467 40.546-10.724 19.892 11.57-19.922 11.5-40.511-10.858-4.143 15.454 25.057 6.716-17.915 10.341 7.998 13.858 17.915-10.342-6.716 25.057 15.455 4.142 10.859-40.511 19.768-11.411v22.697l-29.66 29.66 11.314 11.314 18.347-18.346v20.689h16v-20.683l18.339 18.34 11.314-11.314-29.654-29.654v-22.78l19.686 11.451 10.725 40.548 15.469-4.092-6.634-25.079 24.797 14.424 8.045-13.831-24.797-14.423 25.079-6.634z" fill="#f6f6e7"/><path d="m147.578 128.845-32-16-7.156 14.31 18.631 9.315-43.022 24.584 7.938 13.892 20.031-11.446v12.5h16v-21.643l19.969-11.411a8 8 0 0 0 -.391-14.1z" fill="#e5f1f9"/><path d="m427.969 161.054-43.022-24.584 18.631-9.315-7.156-14.31-32 16a8 8 0 0 0 -.391 14.1l19.969 11.412v21.643h16v-12.5l20.031 11.447z" fill="#e5f1f9"/><path d="m263.62 104.759 4.732-9.463a128.967 128.967 0 0 1 31.423-40.246 128.972 128.972 0 0 1 83.936-31.05 22.6 22.6 0 0 1 21.44 15.453l2.849 8.547a75.893 75.893 0 0 1 0 48l-50.286 16.762-77.714 23.238-16-24z" fill="#df391d"/><path d="m266.286 115.429 2.066-4.133a128.981 128.981 0 0 1 31.423-40.246 128.972 128.972 0 0 1 83.936-31.05 22.6 22.6 0 0 1 21.44 15.453l2.849 8.547a75.891 75.891 0 0 1 3.458 16 75.887 75.887 0 0 0 -3.458-32l-2.849-8.547a22.6 22.6 0 0 0 -21.44-15.453 128.972 128.972 0 0 0 -83.936 31.05 128.981 128.981 0 0 0 -31.423 40.25l-4.732 9.463.38 7.237z" fill="#ef705f"/><path d="m272 168 27.563 39.375a215.186 215.186 0 0 0 71.785 64.707l28.652 15.918 24-40-10.441-5.22a369 369 0 0 1 -95.9-69.122l-13.659-21.658z" fill="#df391d"/><path d="m248.38 104.759-4.732-9.459a128.967 128.967 0 0 0 -31.423-40.25 128.972 128.972 0 0 0 -83.936-31.05 22.6 22.6 0 0 0 -21.44 15.453l-2.849 8.547a75.893 75.893 0 0 0 0 48l50.286 16.762 77.714 23.238 16-24z" fill="#df391d"/><path d="m243.648 95.3a128.967 128.967 0 0 0 -31.423-40.25 128.972 128.972 0 0 0 -83.936-31.05 22.6 22.6 0 0 0 -21.44 15.453l-2.849 8.547a75.882 75.882 0 0 0 -3.634 30.244 75.87 75.87 0 0 1 3.254-14.244l2.849-8.547a22.6 22.6 0 0 1 21.44-15.453 128.972 128.972 0 0 1 83.936 31.05 128.952 128.952 0 0 1 31.423 40.25l2.229 4.458 2.503-3.758.38-7.241z" fill="#ef705f"/><path d="m240 168-27.563 39.375a215.186 215.186 0 0 1 -71.785 64.707l-28.652 15.918-24-40 10.441-5.22a369 369 0 0 0 95.9-69.122l13.659-21.658z" fill="#df391d"/><path d="m288 168h-64v-48l4.686-4.686a38.628 38.628 0 0 1 27.314-11.314 38.628 38.628 0 0 1 27.314 11.314l4.686 4.686z" fill="#912e23"/><path d="m271.534 152h-31.068a16.466 16.466 0 0 1 -16.466-16.466v-15.534l4.686-4.686a38.628 38.628 0 0 1 27.314-11.314 38.628 38.628 0 0 1 27.314 11.314l4.686 4.686v15.534a16.466 16.466 0 0 1 -16.466 16.466z" fill="#df391d"/><path d="m283.313 115.314a38.626 38.626 0 0 0 -54.627 0l-4.686 4.686v16l4.686-4.686a38.626 38.626 0 0 1 54.627 0l4.687 4.686v-16z" fill="#ef705f"/><path d="m352.985 176a267.955 267.955 0 0 1 -64.985-8v-48a267.955 267.955 0 0 1 64.985-8 15.016 15.016 0 0 1 15.015 15.015v33.97a15.016 15.016 0 0 1 -15.015 15.015z" fill="#df391d"/><path d="m352.985 160a267.955 267.955 0 0 1 -64.985-8v16a267.955 267.955 0 0 0 64.985 8 15.016 15.016 0 0 0 15.015-15.015v-16a15.016 15.016 0 0 1 -15.015 15.015z" fill="#912e23"/><path d="m352.985 112a267.955 267.955 0 0 0 -64.985 8v16a267.955 267.955 0 0 1 64.985-8 15.015 15.015 0 0 1 15.015 15.015v-16a15.015 15.015 0 0 0 -15.015-15.015z" fill="#ef705f"/><path d="m159.015 176a267.955 267.955 0 0 0 64.985-8v-48a267.955 267.955 0 0 0 -64.985-8 15.016 15.016 0 0 0 -15.015 15.015v33.97a15.016 15.016 0 0 0 15.015 15.015z" fill="#df391d"/><path d="m159.015 160a15.016 15.016 0 0 1 -15.015-15.015v16a15.016 15.016 0 0 0 15.015 15.015 267.955 267.955 0 0 0 64.985-8v-16a267.955 267.955 0 0 1 -64.985 8z" fill="#912e23"/><path d="m224 120a267.955 267.955 0 0 0 -64.985-8 15.015 15.015 0 0 0 -15.015 15.015v16a15.015 15.015 0 0 1 15.015-15.015 267.955 267.955 0 0 1 64.985 8z" fill="#ef705f"/><path d="m481.287 176.95c-3.933-2.944-8.26-6.185-11.919-8.927l12.2-9.081a22.813 22.813 0 0 0 5.366-30.963l-.206-.31a23.223 23.223 0 0 0 -31.365-7.06c-6.185 3.735-13.5 8.138-19.035 11.46a7.592 7.592 0 0 1 -8.089-.191 7.568 7.568 0 0 1 -1.153-11.65l18-18a20.118 20.118 0 0 0 0-28.452 20.23 20.23 0 0 0 -22.811-3.946c-.19-3.38-9.536-32.9-9.536-32.9a30.561 30.561 0 0 0 -29.028-20.93 136.976 136.976 0 0 0 -122.511 75.718l-2.2 4.388c-1-.063-5.01-.063-6.006 0l-2.194-4.388a136.976 136.976 0 0 0 -122.511-75.718 30.561 30.561 0 0 0 -29.03 20.923s-9.346 29.524-9.536 32.9a20.233 20.233 0 0 0 -22.811 3.948 20.118 20.118 0 0 0 0 28.451l18 18a7.568 7.568 0 0 1 -1.153 11.65 7.6 7.6 0 0 1 -8.09.19c-5.529-3.321-12.849-7.724-19.034-11.458a23.223 23.223 0 0 0 -31.368 7.064l-.2.3a22.814 22.814 0 0 0 5.363 30.968l12.2 9.081c-3.659 2.742-7.986 5.983-11.919 8.927a23.237 23.237 0 0 0 -5.365 31.494l.205.308a22.74 22.74 0 0 0 30.689 6.88l11.442-6.884a24.134 24.134 0 0 0 18 26.918 46.937 46.937 0 0 0 7.8.651l-9.055 4.528a8 8 0 0 0 -3.282 11.271l24 40a8 8 0 0 0 10.745 2.877l27.5-15.277-6.84 88.92a39.618 39.618 0 0 0 -32.55 38.931v16.858a23.608 23.608 0 0 0 23.581 23.581h88.419v8a40 40 0 0 0 80 0v-8h88.419a23.608 23.608 0 0 0 23.581-23.581v-16.858a39.618 39.618 0 0 0 -32.542-38.925l-6.841-88.92 27.5 15.277a8 8 0 0 0 10.745-2.877l24-40a8 8 0 0 0 -3.282-11.271l-9.055-4.528a47.038 47.038 0 0 0 7.8-.651 24.134 24.134 0 0 0 17.995-26.918l11.442 6.884a22.743 22.743 0 0 0 30.693-6.885l.2-.3a23.239 23.239 0 0 0 -5.368-31.497zm-205.779-78.076a120.971 120.971 0 0 1 108.203-66.874 14.583 14.583 0 0 1 13.851 9.983l7.648 22.947a22.357 22.357 0 0 1 -14.141 28.28l-33.661 11.221a23.028 23.028 0 0 0 -4.424-.431 276.191 276.191 0 0 0 -62.5 7.173l-1.517-1.517a46.6 46.6 0 0 0 -14.03-9.648zm20.492 62.795v-35.338a260.189 260.189 0 0 1 56.984-6.331 7.023 7.023 0 0 1 7.016 7.015v33.97a7.023 7.023 0 0 1 -7.016 7.015 260.189 260.189 0 0 1 -56.984-6.331zm55.782 107.807 7.579 98.524h-206.722l7.579-98.524q8.22-5.51 15.939-11.734l3.559 13.452 40.546-10.724 19.892 11.57-19.922 11.5-40.511-10.858-4.143 15.454 25.057 6.716-17.915 10.341 8 13.858 17.915-10.342-6.716 25.057 15.455 4.142 10.857-40.508 19.769-11.414v22.7l-29.66 29.66 11.314 11.314 18.346-18.349v20.689h16v-20.683l18.339 18.34 11.314-11.314-29.653-29.654v-22.78l19.686 11.451 10.725 40.548 15.469-4.092-6.634-25.079 24.8 14.424 8.045-13.831-24.8-14.423 25.079-6.634-4.092-15.467-40.547 10.724-19.664-11.437 19.709-11.377 40.511 10.858 3.68-13.729q7.65 6.162 15.815 11.631zm-192.766-101.476a7.023 7.023 0 0 1 -7.016-7.015v-33.97a7.023 7.023 0 0 1 7.016-7.015 260.189 260.189 0 0 1 56.984 6.331v35.338a260.189 260.189 0 0 1 -56.984 6.331zm62.305 40.635 26.679 26.676v22.781l-19.691-11.453-9.209-34.825zm-14.546 19.171 1.972 7.456-5.6-3.256q1.845-2.075 3.628-4.2zm-15.013 16.087 8.941 5.2-20.719 5.48q6.078-5.127 11.778-10.68zm119.611 5.507 9.118-5.263q5.886 5.7 12.175 10.97zm-8-13.857 2.021-7.542q1.817 2.145 3.682 4.249zm-19.6 11.312-19.773 11.421v-22.959l26.682-26.682 2.33 3.328c.029.042.059.082.089.123zm-2.415-51.535-17.358 17.369v-20.689h-16v20.683l-17.359-17.359 13.524-19.324h23.67zm-3.706-74.354 2.348 2.348v36.686h-48v-36.686l2.343-2.343a30.627 30.627 0 0 1 43.313 0zm-170.862-56.036 7.648-22.947a14.583 14.583 0 0 1 13.851-9.983 120.971 120.971 0 0 1 108.2 66.874l.568 1.134a46.592 46.592 0 0 0 -14.031 9.649l-1.516 1.516a276.191 276.191 0 0 0 -62.5-7.173 23.047 23.047 0 0 0 -4.425.431l-33.655-11.221a22.357 22.357 0 0 1 -14.14-28.28zm-17.23 155.214a8.111 8.111 0 0 1 -5.895-9.823l4.1-16.381a8 8 0 0 0 -11.886-8.795l-27.887 16.778a6.761 6.761 0 0 1 -9.123-2.042l-.2-.307a7.235 7.235 0 0 1 1.631-9.814c9.182-6.872 20.5-15.36 20.5-15.36a8 8 0 0 0 -.024-12.817l-20.792-15.476a6.821 6.821 0 0 1 -1.6-9.262l.2-.3a7.248 7.248 0 0 1 9.782-2.237c6.2 3.739 13.527 8.149 19.063 11.475a23.568 23.568 0 0 0 28.8-36.869l-18-18a4.116 4.116 0 0 1 0-5.822 4.14 4.14 0 0 1 5.385-.381l13.73 10.289a38.5 38.5 0 0 0 18.526 13.389l22.925 7.642a22.868 22.868 0 0 0 -2.476 7.184l-20.741-10.37-7.156 14.31 18.631 9.315-43.022 24.584 7.938 13.892 20.031-11.446v12.5h16v-21.643l8-4.572v11.2a23.042 23.042 0 0 0 23.016 23.015q7.022 0 14.035-.365s-17.675 16.694-25.135 22.23l-7.4-14.852a19.821 19.821 0 0 0 -26.616-8.913l-.185.092a19.957 19.957 0 0 0 -10.741 14.044c-.92 4.629-2.262 11.364-3.514 17.634a8.1 8.1 0 0 1 -9.9 6.27zm25.593-3.137c1.254-6.276 2.6-13.016 3.518-17.65a4.067 4.067 0 0 1 2.2-2.85l.186-.093a3.82 3.82 0 0 1 5.133 1.724l8.358 16.783q-7.221 4.458-14.848 8.283l-10.137 5.068a23.894 23.894 0 0 0 5.59-11.265zm-.274 60.242-15.574-25.957 27.555-13.778a205.469 205.469 0 0 0 53.5-38.56l17.74-17.745q13.345-1.909 26.466-5.116l-18.686 26.7a208.4 208.4 0 0 1 -69.117 62.3zm165.121 178.751a24 24 0 0 1 -48 0v-8h48zm112-48.439v16.858a7.589 7.589 0 0 1 -7.581 7.581h-256.838a7.589 7.589 0 0 1 -7.581-7.581v-16.858a23.587 23.587 0 0 1 23.562-23.561h224.876a23.587 23.587 0 0 1 23.562 23.561zm5.121-130.312-21.888-12.16a208.4 208.4 0 0 1 -69.117-62.3l-18.686-26.7q13.1 3.2 26.466 5.116l17.744 17.745a205.469 205.469 0 0 0 53.5 38.56l27.56 13.782zm-4.821-54.049q-7.637-3.819-14.866-8.294l8.379-16.778a3.82 3.82 0 0 1 5.13-1.718l.186.093a4.066 4.066 0 0 1 2.2 2.851c.92 4.633 2.264 11.373 3.518 17.649a23.894 23.894 0 0 0 5.586 11.265zm81.036-23.625-.2.3a6.761 6.761 0 0 1 -9.127 2.046l-27.883-16.777a8 8 0 0 0 -11.886 8.795l4.1 16.381a8.111 8.111 0 0 1 -5.895 9.823 8.1 8.1 0 0 1 -9.9-6.27c-1.252-6.27-2.594-13-3.514-17.633a19.957 19.957 0 0 0 -10.75-14.04l-.185-.092a19.821 19.821 0 0 0 -26.609 8.892l-7.418 14.856c-7.455-5.533-25.12-22.219-25.12-22.219q7.011.357 14.035.365a23.042 23.042 0 0 0 23.016-23.017v-11.2l8 4.572v21.643h16v-12.5l20.031 11.447 7.938-13.892-43.022-24.585 18.631-9.315-7.156-14.31-20.741 10.37a22.86 22.86 0 0 0 -2.476-7.184l22.924-7.642a38.5 38.5 0 0 0 18.483-13.33l13.78-10.353a4.138 4.138 0 0 1 5.383.383 4.116 4.116 0 0 1 0 5.823l-18 18a23.567 23.567 0 0 0 28.8 36.869c5.537-3.326 12.869-7.736 19.064-11.476a7.246 7.246 0 0 1 9.778 2.233l.207.31a6.82 6.82 0 0 1 -1.6 9.257l-20.792 15.476a8 8 0 0 0 -.032 12.819s11.319 8.488 20.5 15.36a7.236 7.236 0 0 1 1.632 9.819z"/></svg>